<svg width="54" height="56" viewBox="0 0 54 56" fill="none" xmlns="http://www.w3.org/2000/svg">
<path d="M25.0146 31.1627C24.701 31.1627 24.3874 31.0902 24.098 30.921L2.80037 18.572C1.93206 18.0645 1.64263 16.9529 2.14914 16.0829C2.65565 15.2129 3.76515 14.9229 4.60934 15.4304L24.9904 27.2477L45.2509 15.5029C46.1192 14.9954 47.2288 15.3096 47.7111 16.1554C48.2177 17.0254 47.9041 18.137 47.0599 18.6445L25.907 30.921C25.6417 31.066 25.3281 31.1627 25.0146 31.1627Z" fill="black"/>
<path d="M25.0145 53.0575C24.0256 53.0575 23.2056 52.2359 23.2056 51.2451V29.3262C23.2056 28.3353 24.0256 27.5137 25.0145 27.5137C26.0034 27.5137 26.8235 28.3353 26.8235 29.3262V51.2451C26.8235 52.2359 26.0034 53.0575 25.0145 53.0575Z" fill="black"/>
<path d="M25.0121 54C22.8895 54 20.767 53.5408 19.1269 52.5984L6.24699 45.4451C2.74964 43.5118 0 38.8477 0 34.8361V21.1579C0 17.1463 2.74964 12.5063 6.24699 10.5489L19.1269 3.39561C22.4071 1.5348 27.5687 1.5348 30.8731 3.39561L43.753 10.5489C47.2504 12.4822 50 17.1463 50 21.1579V34.8361C50 35.0777 50 35.2711 49.9518 35.5127C49.8312 36.141 49.3729 36.6727 48.7699 36.866C48.1669 37.0835 47.4916 36.9385 46.985 36.5277C44.2113 34.1111 39.918 34.0144 36.9995 36.3585C35.5155 37.5391 34.5128 39.2218 34.1797 41.0908C33.8466 42.9598 34.2061 44.8863 35.1905 46.5084C35.3835 46.8468 35.5765 47.1126 35.7935 47.3784C35.9712 47.5809 36.1007 47.8212 36.1724 48.0811C36.244 48.341 36.2559 48.6138 36.2072 48.879C36.1584 49.1442 36.0503 49.3948 35.8909 49.6121C35.7315 49.8293 35.5251 50.0076 35.287 50.1334L30.8731 52.5742C29.233 53.5408 27.1346 54 25.0121 54ZM25.0121 5.66725C23.5166 5.66725 21.9971 5.98141 20.9117 6.58557L8.03184 13.7388C5.69223 15.0196 3.66618 18.4996 3.66618 21.1579V34.8361C3.66618 37.4944 5.71635 40.9743 8.03184 42.2551L20.9117 49.4084C23.1066 50.6409 26.9416 50.6409 29.1365 49.4084L31.8379 47.9101C30.9302 46.2424 30.4574 44.3722 30.4631 42.4726C30.4631 38.9443 32.0309 35.6819 34.7564 33.5069C38.0367 30.8728 42.74 30.317 46.4062 31.8878V21.1096C46.4062 18.4513 44.356 14.9713 42.0405 13.6905L29.1606 6.53724C28.027 5.98141 26.5075 5.66725 25.0121 5.66725Z" fill="black"/>
<path d="M41.8982 54.0001C37.8944 54.0001 34.1317 51.8734 32.1057 48.4176C31.0203 46.6776 30.4414 44.6235 30.4414 42.521C30.4414 38.9927 32.0092 35.7303 34.7347 33.5553C36.7608 31.9361 39.3174 31.042 41.8982 31.042C48.2176 31.042 53.3551 36.1894 53.3551 42.521C53.3551 44.6235 52.7762 46.6776 51.6908 48.4418C51.1119 49.4568 50.316 50.3751 49.3994 51.1484C47.3975 52.9851 44.7202 54.0001 41.8982 54.0001ZM41.8982 34.6669C40.1134 34.6669 38.425 35.2711 37.0019 36.4069C35.518 37.5874 34.5152 39.2702 34.1821 41.1392C33.849 43.0081 34.2085 44.9346 35.193 46.5568C36.616 48.9734 39.1245 50.3751 41.8982 50.3751C43.8037 50.3751 45.6368 49.6743 47.0357 48.4176C47.6628 47.886 48.1935 47.2576 48.5794 46.581C49.3512 45.3485 49.7371 43.9468 49.7371 42.521C49.7371 38.1952 46.2156 34.6669 41.8982 34.6669Z" fill="black"/>
<path d="M44.4791 46.8469C44.0208 46.8469 43.5626 46.6778 43.2008 46.3153L38.1115 41.2162C37.412 40.5153 37.412 39.3553 38.1115 38.6545C38.811 37.9537 39.9687 37.9537 40.6682 38.6545L45.7574 43.7536C46.4569 44.4545 46.4569 45.6144 45.7574 46.3153C45.3956 46.6778 44.9374 46.8469 44.4791 46.8469Z" fill="black"/>
<path d="M39.3198 46.9192C38.8615 46.9192 38.4032 46.75 38.0414 46.3875C37.705 46.0465 37.5164 45.5862 37.5164 45.1067C37.5164 44.6272 37.705 44.167 38.0414 43.8259L43.1307 38.7268C43.8302 38.026 44.9879 38.026 45.6874 38.7268C46.3868 39.4276 46.3868 40.5876 45.6874 41.2884L40.5981 46.3875C40.2363 46.75 39.7781 46.9192 39.3198 46.9192Z" fill="black"/>
</svg>
